# xmcd
#
# Track frame offsets:
#	150
#	16734
#	35522
#	51514
#	68020
#	87862
#	103750
#	125332
#	142871
#	158849
#	173307
#
# Disc length: 2666 seconds
#
# Revision: 1
# Processed by: cddbd v1.5.2PL0 Copyright (c) Steve Scherf et al.
# Submitted via: audiograbber 1.83.01
#
DISCID=810a680b
DTITLE=Eric Lambier - Better Day
DYEAR=2013
DGENRE=Blues
TTITLE0=I'm Gonna Love Ya
TTITLE1=All God's Children
TTITLE2=Suffering the Night
TTITLE3=Beautiful Girls
TTITLE4=Sonny's Lost
TTITLE5=One Track Mind
TTITLE6=Crazy Over You
TTITLE7=Keep You Satisfied
TTITLE8=Jack Blues
TTITLE9=You Know It's True
TTITLE10=Murdered Love
EXTD=
EXTT0=
EXTT1=
EXTT2=
EXTT3=
EXTT4=
EXTT5=
EXTT6=
EXTT7=
EXTT8=
EXTT9=
EXTT10=
PLAYORDER=
